<svg width="400" height="400" viewBox="0 0 400 400" fill="none" xmlns="http://www.w3.org/2000/svg">
<g clip-path="url(#clip0_18_2)">
<mask id="mask0_18_2" style="mask-type:luminance" maskUnits="userSpaceOnUse" x="0" y="0" width="400" height="400">
<path d="M400 0H0V400H400V0Z" fill="white"/>
</mask>
<g mask="url(#mask0_18_2)">
<mask id="mask1_18_2" style="mask-type:luminance" maskUnits="userSpaceOnUse" x="0" y="0" width="400" height="400">
<path d="M0 0H400V400H0V0Z" fill="white"/>
</mask>
<g mask="url(#mask1_18_2)">
<mask id="mask2_18_2" style="mask-type:alpha" maskUnits="userSpaceOnUse" x="0" y="0" width="400" height="400">
<path d="M0 0V200H199.968L0 0ZM199.968 200L400 0H199.968V200ZM199.968 200L400 400V200H199.968ZM199.968 200L0 400H199.968V200Z" fill="white"/>
</mask>
<g mask="url(#mask2_18_2)">
<path d="M400 0H0V400H400V0Z" fill="white"/>
<path d="M400 0H0V400H400V0Z" fill="#F2371F" fill-opacity="0.2"/>
<g filter="url(#filter0_f_18_2)">
<path d="M353.5 135.75H120V371.75H353.5V135.75Z" fill="#00C5DF"/>
<path d="M351.5 146H48V347H351.5V146Z" fill="#FFC700"/>
<path d="M444.25 52H180V255.5H444.25V52Z" fill="#1BC47D"/>
<path d="M410.75 183.25H156.5V432.25H410.75V183.25Z" fill="#00C5DF"/>
</g>
</g>
</g>
<mask id="mask3_18_2" style="mask-type:alpha" maskUnits="userSpaceOnUse" x="0" y="0" width="400" height="400">
<path d="M0 0V200H199.968L0 0ZM199.968 200L400 0H199.968V200ZM199.968 200L400 400V200H199.968ZM199.968 200L0 400H199.968V200Z" fill="white"/>
</mask>
<g mask="url(#mask3_18_2)">
<g style="mix-blend-mode:overlay">
<path d="M400 0H0V400H400V0Z" fill="#808080"/>
</g>
</g>
</g>
</g>
<defs>
<filter id="filter0_f_18_2" x="-77" y="-73" width="646.25" height="630.25" filterUnits="userSpaceOnUse" color-interpolation-filters="sRGB">
<feFlood flood-opacity="0" result="BackgroundImageFix"/>
<feBlend mode="normal" in="SourceGraphic" in2="BackgroundImageFix" result="shape"/>
<feGaussianBlur stdDeviation="62.5" result="effect1_foregroundBlur_18_2"/>
</filter>
<clipPath id="clip0_18_2">
<rect width="400" height="400" fill="white"/>
</clipPath>
</defs>
</svg>
